# xmcd
# Track frame offsets:
# 150
# 11990
# 25107
# 37807
# 48672
# 61865
# 73955
# 89115
# 101647
# 113477
# 127867
# 141910
# 154300
# 166280
# 181240
# 192305
# 206952
# 218330
# 231955
# 242575
# 255337
# 266950
# 279127
# 291622
# 303492
#
# Disc length: 4230 seconds
# Revision: 0
# Processed by: cddbd v1.4PL0 Copyright (c) Steve Scherf et al.
# Submitted via: VisiTrax 2.9.5.181 - For more info visit www.synapsa.com
#
DISCID=73108419
DTITLE=Various Artist - Obscure Blues Shouters - Volume 1
DYEAR=1996
DGENRE=Blues
TTITLE0=Jimmy Smith - Cheatin' Women
TTITLE1=Jimmy Smith - Jimmy's Blues
TTITLE2=Jimmy Smith - Saturday Nite
TTITLE3=Jimmy Smith - Ma-Ma
TTITLE4=Jimmy Smith - Talking Boogie
TTITLE5=Jimmy Smith - Rock That Boogie
TTITLE6=Max "Blues" Bailey - Delinquency Blues
TTITLE7=Max "Blues" Bailey - Sting-A-Ree
TTITLE8=Max "Blues" Bailey - Rockin' The Blues
TTITLE9=Max "Blues" Bailey - Coming Home Blues
TTITLE10=Max "Blues" Bailey - Irene's Blues
TTITLE11=Max "Blues" Bailey - Put Your Money Where Your Mouth Is
TTITLE12=Max "Blues" Bailey - Leave It Alone
TTITLE13=Max "Blues" Bailey - Rebekah
TTITLE14=Max "Blues" Bailey - My Oh My
TTITLE15=Max "Blues" Bailey - Raindrop Blues
TTITLE16=Max "Blues" Bailey - Betty Jane
TTITLE17=Max "Blues" Bailey - Sorry Girl Blues
TTITLE18=Max "Blues" Bailey - Love Me Pretty Baby
TTITLE19=Max "Blues" Bailey - Lonesome Man Blues
TTITLE20=Max "Blues" Bailey - Run Jody Run
TTITLE21=Max "Blues" Bailey - Brown Skin Woman Blues
TTITLE22=Max "Blues" Bailey - Teardrops Are Falling
TTITLE23=Max "Blues" Bailey - My Baby's Blues
TTITLE24=Max "Blues" Bailey - Drive Soldiers Drive
EXTD=
EXTT0=
EXTT1=
EXTT2=
EXTT3=
EXTT4=
EXTT5=
EXTT6=
EXTT7=
EXTT8=
EXTT9=
EXTT10=
EXTT11=
EXTT12=
EXTT13=
EXTT14=
EXTT15=
EXTT16=
EXTT17=
EXTT18=
EXTT19=
EXTT20=
EXTT21=
EXTT22=
EXTT23=
EXTT24=
PLAYORDER=
